<?xml version="1.0" encoding="UTF-8" standalone="no"?>
<!DOCTYPE svg PUBLIC "-//W3C//DTD SVG 1.1//EN"
 "http://www.w3.org/Graphics/SVG/1.1/DTD/svg11.dtd">
<!-- Generated by graphviz version 16.0.0 (20260814.1018)
 -->
<!-- Title: G Pages: 1 -->
<svg width="1430pt" height="127pt"
 viewBox="0.00 0.00 1430.00 127.00" xmlns="http://www.w3.org/2000/svg" xmlns:xlink="http://www.w3.org/1999/xlink">
<g id="graph0" class="graph" transform="scale(1 1) rotate(0) translate(21.6 105.35)">
<title>G</title>
<polygon fill="#111111" stroke="none" points="-21.6,21.6 -21.6,-105.35 1408.35,-105.35 1408.35,21.6 -21.6,21.6"/>
<!-- game/core/GameState.js -->
<g id="node1" class="node">
<title>game/core/GameState.js</title>
<path fill="none" stroke="#ff6c60" d="M681.33,-43.75C681.33,-43.75 529.67,-43.75 529.67,-43.75 525.71,-43.75 521.75,-39.79 521.75,-35.83 521.75,-35.83 521.75,-27.92 521.75,-27.92 521.75,-23.96 525.71,-20 529.67,-20 529.67,-20 681.33,-20 681.33,-20 685.29,-20 689.25,-23.96 689.25,-27.92 689.25,-27.92 689.25,-35.83 689.25,-35.83 689.25,-39.79 685.29,-43.75 681.33,-43.75"/>
<text xml:space="preserve" text-anchor="middle" x="605.5" y="-26.45" font-family="Arial" font-size="14.00" fill="#ff6c60">game/core/GameState.js</text>
</g>
<!-- game/core/stateFactory.js -->
<g id="node2" class="node">
<title>game/core/stateFactory.js</title>
<path fill="none" stroke="#ff6c60" d="M888.58,-83.75C888.58,-83.75 733.17,-83.75 733.17,-83.75 729.21,-83.75 725.25,-79.79 725.25,-75.83 725.25,-75.83 725.25,-67.92 725.25,-67.92 725.25,-63.96 729.21,-60 733.17,-60 733.17,-60 888.58,-60 888.58,-60 892.54,-60 896.5,-63.96 896.5,-67.92 896.5,-67.92 896.5,-75.83 896.5,-75.83 896.5,-79.79 892.54,-83.75 888.58,-83.75"/>
<text xml:space="preserve" text-anchor="middle" x="810.88" y="-66.45" font-family="Arial" font-size="14.00" fill="#ff6c60">game/core/stateFactory.js</text>
</g>
<!-- game/core/GameState.js&#45;&gt;game/core/stateFactory.js -->
<g id="edge1" class="edge">
<title>game/core/GameState.js&#45;&gt;game/core/stateFactory.js</title>
<path fill="none" stroke="#757575" d="M669.18,-44.2C690.25,-48.35 713.95,-53.01 735.81,-57.31"/>
<polygon fill="#757575" stroke="#757575" points="735.08,-60.73 745.57,-59.23 736.43,-53.86 735.08,-60.73"/>
</g>
<!-- game/systems/SettingsSystem.js -->
<g id="node3" class="node">
<title>game/systems/SettingsSystem.js</title>
<path fill="none" stroke="#ff6c60" d="M1140.83,-45.75C1140.83,-45.75 940.42,-45.75 940.42,-45.75 936.46,-45.75 932.5,-41.79 932.5,-37.83 932.5,-37.83 932.5,-29.92 932.5,-29.92 932.5,-25.96 936.46,-22 940.42,-22 940.42,-22 1140.83,-22 1140.83,-22 1144.79,-22 1148.75,-25.96 1148.75,-29.92 1148.75,-29.92 1148.75,-37.83 1148.75,-37.83 1148.75,-41.79 1144.79,-45.75 1140.83,-45.75"/>
<text xml:space="preserve" text-anchor="middle" x="1040.62" y="-28.45" font-family="Arial" font-size="14.00" fill="#ff6c60">game/systems/SettingsSystem.js</text>
</g>
<!-- game/core/stateFactory.js&#45;&gt;game/systems/SettingsSystem.js -->
<g id="edge2" class="edge">
<title>game/core/stateFactory.js&#45;&gt;game/systems/SettingsSystem.js</title>
<path fill="none" stroke="#757575" d="M885.82,-59.54C907.71,-55.89 931.85,-51.86 954.39,-48.1"/>
<polygon fill="#757575" stroke="#757575" points="954.88,-51.56 964.17,-46.46 953.73,-44.66 954.88,-51.56"/>
</g>
<!-- game/systems/SettingsSystem.js&#45;&gt;game/core/GameState.js -->
<g id="edge8" class="edge">
<title>game/systems/SettingsSystem.js&#45;&gt;game/core/GameState.js</title>
<path fill="none" stroke="#757575" d="M932.27,-33.38C861.2,-33.05 768.87,-32.62 700.66,-32.31"/>
<polygon fill="#757575" stroke="#757575" points="701.03,-28.81 691.01,-32.27 701,-35.81 701.03,-28.81"/>
</g>
<!-- game/systems/AudioSystem.js -->
<g id="node4" class="node">
<title>game/systems/AudioSystem.js</title>
<path fill="none" stroke="#ff6c60" d="M1378.83,-25.75C1378.83,-25.75 1192.67,-25.75 1192.67,-25.75 1188.71,-25.75 1184.75,-21.79 1184.75,-17.83 1184.75,-17.83 1184.75,-9.92 1184.75,-9.92 1184.75,-5.96 1188.71,-2 1192.67,-2 1192.67,-2 1378.83,-2 1378.83,-2 1382.79,-2 1386.75,-5.96 1386.75,-9.92 1386.75,-9.92 1386.75,-17.83 1386.75,-17.83 1386.75,-21.79 1382.79,-25.75 1378.83,-25.75"/>
<text xml:space="preserve" text-anchor="middle" x="1285.75" y="-8.45" font-family="Arial" font-size="14.00" fill="#ff6c60">game/systems/AudioSystem.js</text>
</g>
<!-- game/systems/SettingsSystem.js&#45;&gt;game/systems/AudioSystem.js -->
<g id="edge9" class="edge">
<title>game/systems/SettingsSystem.js&#45;&gt;game/systems/AudioSystem.js</title>
<path fill="none" stroke="#757575" d="M1148.97,-25.04C1157.01,-24.38 1165.14,-23.71 1173.2,-23.05"/>
<polygon fill="#757575" stroke="#757575" points="1173.36,-26.55 1183.04,-22.24 1172.79,-19.57 1173.36,-26.55"/>
</g>
<!-- game/systems/AudioSystem.js&#45;&gt;game/core/GameState.js -->
<g id="edge3" class="edge">
<title>game/systems/AudioSystem.js&#45;&gt;game/core/GameState.js</title>
<path fill="none" stroke="#757575" d="M1184.48,-13.05C1172.44,-12.98 1160.32,-12.92 1148.75,-12.88 1052.64,-12.52 1028.57,-10.08 932.5,-12.88 854.45,-15.15 766.02,-20.47 700.97,-24.91"/>
<polygon fill="#757575" stroke="#757575" points="700.76,-21.42 691.03,-25.6 701.24,-28.4 700.76,-21.42"/>
</g>
<!-- game/systems/ProgressionSystem.js -->
<g id="node5" class="node">
<title>game/systems/ProgressionSystem.js</title>
<path fill="none" stroke="#ff6c60" d="M231.58,-23.75C231.58,-23.75 7.92,-23.75 7.92,-23.75 3.96,-23.75 0,-19.79 0,-15.83 0,-15.83 0,-7.92 0,-7.92 0,-3.96 3.96,0 7.92,0 7.92,0 231.58,0 231.58,0 235.54,0 239.5,-3.96 239.5,-7.92 239.5,-7.92 239.5,-15.83 239.5,-15.83 239.5,-19.79 235.54,-23.75 231.58,-23.75"/>
<text xml:space="preserve" text-anchor="middle" x="119.75" y="-6.45" font-family="Arial" font-size="14.00" fill="#ff6c60">game/systems/ProgressionSystem.js</text>
</g>
<!-- game/systems/ProgressionSystem.js&#45;&gt;game/core/GameState.js -->
<g id="edge4" class="edge">
<title>game/systems/ProgressionSystem.js&#45;&gt;game/core/GameState.js</title>
<path fill="none" stroke="#757575" d="M196.5,-24.23C221.57,-27.76 249.67,-31.13 275.5,-32.88 368.73,-39.17 392.31,-33.27 485.75,-32.88 493.69,-32.84 501.92,-32.8 510.19,-32.74"/>
<polygon fill="#757575" stroke="#757575" points="509.96,-36.24 519.94,-32.67 509.91,-29.24 509.96,-36.24"/>
</g>
<!-- game/systems/ProgressionXP.js -->
<g id="node6" class="node">
<title>game/systems/ProgressionXP.js</title>
<path fill="none" stroke="#ff6c60" d="M477.83,-23.75C477.83,-23.75 283.42,-23.75 283.42,-23.75 279.46,-23.75 275.5,-19.79 275.5,-15.83 275.5,-15.83 275.5,-7.92 275.5,-7.92 275.5,-3.96 279.46,0 283.42,0 283.42,0 477.83,0 477.83,0 481.79,0 485.75,-3.96 485.75,-7.92 485.75,-7.92 485.75,-15.83 485.75,-15.83 485.75,-19.79 481.79,-23.75 477.83,-23.75"/>
<text xml:space="preserve" text-anchor="middle" x="380.62" y="-6.45" font-family="Arial" font-size="14.00" fill="#ff6c60">game/systems/ProgressionXP.js</text>
</g>
<!-- game/systems/ProgressionSystem.js&#45;&gt;game/systems/ProgressionXP.js -->
<g id="edge5" class="edge">
<title>game/systems/ProgressionSystem.js&#45;&gt;game/systems/ProgressionXP.js</title>
<path fill="none" stroke="#757575" d="M239.96,-5.14C247.99,-5.11 256.07,-5.12 264.07,-5.16"/>
<polygon fill="#757575" stroke="#757575" points="263.8,-8.66 273.82,-5.23 263.85,-1.66 263.8,-8.66"/>
</g>
<!-- game/systems/ProgressionXP.js&#45;&gt;game/core/GameState.js -->
<g id="edge6" class="edge">
<title>game/systems/ProgressionXP.js&#45;&gt;game/core/GameState.js</title>
<path fill="none" stroke="#757575" d="M486.21,-21.26C494.11,-21.97 502.06,-22.68 509.9,-23.39"/>
<polygon fill="#757575" stroke="#757575" points="509.5,-26.86 519.77,-24.27 510.12,-19.89 509.5,-26.86"/>
</g>
<!-- game/systems/ProgressionXP.js&#45;&gt;game/systems/ProgressionSystem.js -->
<g id="edge7" class="edge">
<title>game/systems/ProgressionXP.js&#45;&gt;game/systems/ProgressionSystem.js</title>
<path fill="none" stroke="#757575" d="M275.34,-18.51C267.42,-18.58 259.38,-18.62 251.33,-18.62"/>
<polygon fill="#757575" stroke="#757575" points="251.48,-15.13 241.47,-18.61 251.47,-22.13 251.48,-15.13"/>
</g>
</g>
</svg>
